<svg width="3209" height="1831" viewBox="0 0 3209 1831" fill="none" xmlns="http://www.w3.org/2000/svg">
<path d="M3147.67 0.601222L899.351 9.98103C880.183 10.061 862.206 19.2947 850.976 34.8291L774.714 140.323C763.651 155.625 746.03 164.828 727.15 165.162L60.2458 176.958C27.5275 177.536 1.30687 204.225 1.30687 236.948L1.30687 1770.38C1.30687 1803.62 28.3343 1830.53 61.5762 1830.38L1381.25 1824.46C1395.95 1824.39 1410.11 1818.93 1421.05 1809.12L1580.82 1665.76C1591.83 1655.88 1606.1 1650.42 1620.89 1650.42L3147.92 1650.42C3181.06 1650.42 3207.92 1623.56 3207.92 1590.42L3207.92 60.6007C3207.92 27.3658 3180.91 0.46257 3147.67 0.601222Z" fill="black" stroke="black"/>
</svg>
