<svg width="72" height="72" viewBox="0 0 72 72" fill="none" xmlns="http://www.w3.org/2000/svg">
<g clip-path="url(#clip0_5108_4664)">
<mask id="path-1-inside-1_5108_4664" fill="white">
<path d="M1.31117 72C0.79758 72 0.470749 71.9103 0.280098 71.7155C0.0913923 71.5245 0.00579378 71.2029 0.01163 70.7039C0.0194117 69.9926 0.0135755 69.2676 0.0077392 68.5659C-0.00782416 66.8762 -0.0233875 65.13 0.171154 63.4422C0.77618 58.1781 3.56008 54.2509 8.44308 51.766C9.12592 51.4191 9.37494 51.0176 9.36521 50.2848C9.36132 50.0334 9.35548 49.782 9.35159 49.5306C9.32436 48.2014 9.29712 46.8274 9.48583 45.5157C9.86713 42.8554 12.1705 40.9065 14.9602 40.8831C16.0244 40.8733 17.1722 40.8694 18.5729 40.8694C19.4503 40.8694 20.3296 40.8694 21.207 40.8733C22.0844 40.8733 22.9637 40.8772 23.8411 40.8772H25.0278L24.9091 40.6044C24.7185 40.1678 24.5161 39.7371 24.3177 39.322C23.8722 38.3845 23.4539 37.4997 23.1933 36.5623C22.7225 34.8628 21.7945 33.6038 20.2771 32.5981C19.7226 32.2317 19.1993 31.7912 18.6916 31.3644C18.4834 31.189 18.2752 31.0156 18.0651 30.8441C16.6255 29.6786 16.0925 28.25 16.4796 26.5973C16.8784 24.8978 17.9756 23.8434 19.744 23.4653C19.8296 23.4478 19.9113 23.4225 19.9853 23.3913C20.0358 23.3698 20.0728 23.3426 20.1156 23.3114C20.1331 23.2977 20.1545 23.2821 20.1817 23.2646L20.3218 23.1691L20.2459 23.0171C19.9736 22.4733 19.7032 21.9276 19.4328 21.3819C18.8219 20.1482 18.1916 18.8736 17.5399 17.6341C16.6917 16.0243 16.5613 14.4456 17.1391 12.8065C17.7616 11.0427 16.9387 9.35105 15.1392 8.69621C14.4311 8.43895 13.7035 8.20312 12.9993 7.97705L12.509 7.81918C12.116 7.6925 11.6608 7.43914 11.7231 6.96554C11.7756 6.57575 12.0402 6.11775 12.3145 5.94819C18.2947 2.21985 24.8936 0.237772 31.9243 0.0584685C33.4378 0.0194895 35.0876 0 36.9707 0C38.7119 0 40.4822 0.0155916 42.1942 0.0311832L43.0035 0.038979C46.8476 0.0721111 50.3319 1.87489 52.5633 4.98151C54.7849 8.07449 55.3822 11.9354 54.2013 15.5701C53.7013 17.1098 53.1274 18.6573 52.573 20.1521C52.3104 20.8596 52.0477 21.5671 51.7929 22.2765C51.7326 22.4441 51.6742 22.6136 51.6119 22.7929L51.4466 23.2646L51.8979 23.3718C52.0536 23.4088 52.1936 23.4419 52.3337 23.4751C54.0048 23.8532 55.069 24.8569 55.495 26.4628C55.923 28.0746 55.4756 29.5071 54.2013 30.6063C53.3122 31.3722 52.3746 32.1167 51.466 32.8339C50.9991 33.2042 50.5322 33.5745 50.0673 33.9507L50.0011 34.0033C49.8338 34.1339 49.6451 34.284 49.5634 34.4925C48.9351 36.0828 48.3047 37.7122 47.6978 39.2888L47.085 40.8772H53.3881C54.5087 40.8753 55.6312 40.8772 56.7518 40.8772C60.2107 40.885 62.6366 43.3193 62.6483 46.7962L62.6522 47.4861C62.6561 48.5249 62.6619 49.6007 62.6405 50.6571C62.6289 51.1852 62.872 51.4152 63.2397 51.5984C68.9301 54.4419 71.8735 59.1311 71.9844 65.5353C72.0077 66.8489 72 68.184 71.9922 69.4761C71.9902 69.8873 71.9883 70.2986 71.9863 70.7098C71.9824 71.6843 71.6634 71.9981 70.6732 71.9981H37.1808C25.2243 71.9981 13.2677 71.9981 1.31117 71.9981V72ZM15.3338 42.8242C12.8028 42.8242 11.2931 44.3366 11.2912 46.8703C11.2892 54.2821 11.2912 61.6959 11.2912 69.1078C11.2912 69.2715 11.3009 69.4332 11.3106 69.6028C11.3145 69.6807 11.3204 69.7626 11.3242 69.8445L11.334 70.0296H60.7029V62.9471C60.7029 57.57 60.7029 52.1909 60.7029 46.8137C60.7029 44.3522 59.1602 42.8242 56.6778 42.8223C49.7735 42.8223 42.8712 42.8223 35.9669 42.8223H15.3318L15.3338 42.8242ZM62.6853 70.0062H70.0409V69.8113C70.0409 69.3066 70.0409 68.8057 70.0448 68.3067C70.0487 67.1803 70.0526 66.1161 70.037 65.0286C70.002 62.6606 69.3639 60.4408 68.1363 58.4295C66.8524 56.3266 65.1618 54.7538 62.9693 53.6234L62.6853 53.4772V70.0043V70.0062ZM9.08312 53.6623C9.03643 53.676 8.99558 53.6877 8.96251 53.6955C8.89442 53.713 8.83995 53.7286 8.78547 53.7559C8.63179 53.8319 8.47226 53.9099 8.31857 54.0034C5.62611 55.6503 3.72349 57.9968 2.66129 60.9767C1.9551 62.9549 1.92203 64.9799 1.95121 67.2329C1.959 67.8273 1.95705 68.4276 1.9551 69.0103C1.9551 69.2754 1.9551 69.9984 1.9551 69.9984H9.33603V53.5883L9.08507 53.6623H9.08312ZM35.9727 40.8753C38.6555 40.8753 41.2857 40.8811 43.7933 40.8928C44.3925 40.8928 44.7368 40.6843 45.0345 40.1522C46.9215 36.7708 48.1549 33.1516 48.6997 29.394C48.8261 28.5248 48.8942 27.6341 48.9603 26.7727C48.9915 26.3732 49.0226 25.9717 49.0576 25.5702L49.0771 25.3578H46.3068V25.5527C46.3068 25.9288 46.3087 26.2991 46.3107 26.6694C46.3146 27.4958 46.3204 28.2773 46.301 29.0744C46.2601 30.8635 44.8866 32.2551 43.1046 32.3116C42.6864 32.3253 42.2603 32.3311 41.8401 32.3311C41.4199 32.3311 40.99 32.3253 40.5659 32.3116C38.7916 32.2551 37.4162 30.8655 37.3637 29.0764C37.3559 28.8055 37.3579 28.5268 37.3598 28.2598C37.3598 28.135 37.3617 28.0083 37.3617 27.8856V27.6907H34.6343V28.2578C34.6362 28.5112 34.6382 28.7509 34.6343 28.9926C34.5954 30.885 33.1947 32.2843 31.2998 32.3175C31.0469 32.3214 30.7921 32.3233 30.5392 32.3233C30.3368 32.3233 30.1326 32.3233 29.9302 32.3233H29.4089C27.0121 32.3194 25.6912 30.9922 25.6892 28.5833C25.6892 27.8856 25.6892 25.5351 25.6892 25.5351V25.3402H23.1252L23.0785 25.4669C23.0649 25.502 23.0532 25.5293 23.0435 25.5527C23.0201 25.6072 22.9987 25.6579 22.9968 25.7222C22.9929 25.8879 22.989 26.0672 22.9968 26.2465C23.2419 31.2377 24.5881 35.9347 26.9966 40.2049C27.2767 40.6999 27.6074 40.8928 28.1794 40.8928C30.8796 40.8831 33.4981 40.8792 35.9727 40.8792V40.8753ZM20.5241 25.3558C19.6098 25.3558 18.9231 25.7554 18.5359 26.5115C18.1079 27.3515 18.2305 28.3124 18.8414 28.9049C19.3219 29.3707 19.8413 29.7858 20.3919 30.2262C20.635 30.4211 20.884 30.6199 21.1369 30.8304L21.4988 31.1306L20.9502 25.3773L20.7868 25.3656C20.6973 25.3578 20.6078 25.3558 20.5222 25.3558H20.5241ZM51.4602 25.3578C51.3766 25.3578 51.2929 25.3617 51.2054 25.3675L51.0419 25.3792L50.4953 31.1033L50.8532 30.8168C51.0867 30.6297 51.3104 30.4543 51.5244 30.2847C51.9835 29.9222 52.4154 29.5811 52.8337 29.2303C53.6546 28.5443 53.9114 27.5835 53.5224 26.6597C53.1702 25.8197 52.4368 25.3578 51.4563 25.3578H51.4602ZM27.6405 25.5449C27.6405 25.9054 27.6385 26.2601 27.6346 26.6129C27.6288 27.4607 27.623 28.2598 27.6522 29.0764C27.6794 29.8345 28.1833 30.3276 28.9673 30.3627C29.3661 30.3802 29.7688 30.388 30.1637 30.388C30.5586 30.388 30.9827 30.3783 31.3835 30.3607C32.1344 30.3256 32.6383 29.8403 32.6674 29.1251C32.7025 28.2909 32.6947 27.4373 32.6889 26.6109C32.685 26.2582 32.683 25.9035 32.683 25.5449V25.35H27.6405V25.5449ZM39.3149 25.5468C39.3149 25.9074 39.3111 26.266 39.3072 26.6207C39.2974 27.4841 39.2897 28.2987 39.3305 29.1329C39.3675 29.8735 39.8908 30.3451 40.6962 30.3666C41.0133 30.3744 41.3518 30.3783 41.7312 30.3783C42.1397 30.3783 42.5502 30.3744 42.9587 30.3685C43.7213 30.3588 44.2622 29.9242 44.303 29.2868C44.3614 28.3981 44.3497 27.4958 44.338 26.6226C44.3341 26.264 44.3283 25.9035 44.3283 25.5468V25.3519H39.313V25.5468H39.3149ZM29.1793 23.3718C30.5897 23.3718 31.9982 23.3718 33.4087 23.3757C34.3016 23.3757 34.6245 23.6992 34.6382 24.6035C34.6421 24.7965 34.6401 24.9894 34.6382 25.1863V25.6618H37.3306L37.3481 25.2993C37.354 25.1882 37.3598 25.0927 37.3598 24.9953C37.3793 23.5413 37.5485 23.3757 38.9998 23.3757H48.9915L48.9973 23.1866C49.188 16.8798 48.9389 16.0691 45.2076 10.7913L45.089 10.6237L44.9275 10.7523C44.7699 10.879 44.6162 10.9999 44.4645 11.1188C44.1396 11.376 43.8303 11.6177 43.5268 11.873C41.1728 13.8492 38.5193 14.8179 35.4144 14.8354C33.6285 14.8451 31.8698 15.422 30.189 16.5505C28.7533 17.5152 27.3117 18.4741 25.8721 19.433L23.9461 20.7154C22.8723 21.4326 22.7205 21.8789 23.0921 23.2334L23.131 23.3757H29.1754L29.1793 23.3718ZM37.8578 1.96454C36.1536 1.96454 34.4319 1.97039 32.7394 1.98013C27.837 2.00937 23.0415 2.99553 18.4873 4.9133C17.8103 5.19784 17.1625 5.50773 16.4777 5.8371C16.1664 5.98522 15.8532 6.13724 15.5361 6.28536L15.291 6.40035L15.4758 6.59719C15.5225 6.64591 15.5536 6.68489 15.5789 6.71218C15.6295 6.7726 15.6742 6.82327 15.752 6.84666C17.0282 7.22865 18.1196 8.17779 18.746 9.4446C19.4016 10.7738 19.4639 12.3037 18.9172 13.7479C18.6799 14.3774 18.674 15.2174 18.8997 15.7943C19.3141 16.8428 19.8316 17.8758 20.3315 18.8756C20.5358 19.2829 20.742 19.6941 20.9424 20.1112L21.0397 20.3119C21.0397 20.3119 22.8236 19.125 23.6135 18.5988C25.485 17.3534 27.2533 16.1782 29.0548 14.9679C31.0839 13.6056 33.255 12.904 35.5078 12.8845C38.0271 12.8631 40.2779 12.0426 42.2 10.4503C43.0735 9.72525 43.8711 9.086 44.6396 8.49157C44.8983 8.29278 45.1609 8.18753 45.4022 8.18753C45.692 8.18753 45.9449 8.34345 46.1336 8.63774C46.548 9.28284 46.9955 9.92599 47.4293 10.5477C48.9506 12.7325 50.5245 14.9933 50.9661 17.7958L51.3415 17.8309C51.4408 17.5561 51.54 17.2833 51.6411 17.0085C51.8532 16.4277 52.073 15.8274 52.2773 15.231C53.3453 12.101 52.8862 8.79366 51.0147 6.15673C49.1452 3.52175 46.1823 1.99962 42.8829 1.98208C41.2117 1.97234 39.5212 1.96844 37.8617 1.96844L37.8578 1.96454Z"/>
</mask>
<path d="M1.31117 72C0.79758 72 0.470749 71.9103 0.280098 71.7155C0.0913923 71.5245 0.00579378 71.2029 0.01163 70.7039C0.0194117 69.9926 0.0135755 69.2676 0.0077392 68.5659C-0.00782416 66.8762 -0.0233875 65.13 0.171154 63.4422C0.77618 58.1781 3.56008 54.2509 8.44308 51.766C9.12592 51.4191 9.37494 51.0176 9.36521 50.2848C9.36132 50.0334 9.35548 49.782 9.35159 49.5306C9.32436 48.2014 9.29712 46.8274 9.48583 45.5157C9.86713 42.8554 12.1705 40.9065 14.9602 40.8831C16.0244 40.8733 17.1722 40.8694 18.5729 40.8694C19.4503 40.8694 20.3296 40.8694 21.207 40.8733C22.0844 40.8733 22.9637 40.8772 23.8411 40.8772H25.0278L24.9091 40.6044C24.7185 40.1678 24.5161 39.7371 24.3177 39.322C23.8722 38.3845 23.4539 37.4997 23.1933 36.5623C22.7225 34.8628 21.7945 33.6038 20.2771 32.5981C19.7226 32.2317 19.1993 31.7912 18.6916 31.3644C18.4834 31.189 18.2752 31.0156 18.0651 30.8441C16.6255 29.6786 16.0925 28.25 16.4796 26.5973C16.8784 24.8978 17.9756 23.8434 19.744 23.4653C19.8296 23.4478 19.9113 23.4225 19.9853 23.3913C20.0358 23.3698 20.0728 23.3426 20.1156 23.3114C20.1331 23.2977 20.1545 23.2821 20.1817 23.2646L20.3218 23.1691L20.2459 23.0171C19.9736 22.4733 19.7032 21.9276 19.4328 21.3819C18.8219 20.1482 18.1916 18.8736 17.5399 17.6341C16.6917 16.0243 16.5613 14.4456 17.1391 12.8065C17.7616 11.0427 16.9387 9.35105 15.1392 8.69621C14.4311 8.43895 13.7035 8.20312 12.9993 7.97705L12.509 7.81918C12.116 7.6925 11.6608 7.43914 11.7231 6.96554C11.7756 6.57575 12.0402 6.11775 12.3145 5.94819C18.2947 2.21985 24.8936 0.237772 31.9243 0.0584685C33.4378 0.0194895 35.0876 0 36.9707 0C38.7119 0 40.4822 0.0155916 42.1942 0.0311832L43.0035 0.038979C46.8476 0.0721111 50.3319 1.87489 52.5633 4.98151C54.7849 8.07449 55.3822 11.9354 54.2013 15.5701C53.7013 17.1098 53.1274 18.6573 52.573 20.1521C52.3104 20.8596 52.0477 21.5671 51.7929 22.2765C51.7326 22.4441 51.6742 22.6136 51.6119 22.7929L51.4466 23.2646L51.8979 23.3718C52.0536 23.4088 52.1936 23.4419 52.3337 23.4751C54.0048 23.8532 55.069 24.8569 55.495 26.4628C55.923 28.0746 55.4756 29.5071 54.2013 30.6063C53.3122 31.3722 52.3746 32.1167 51.466 32.8339C50.9991 33.2042 50.5322 33.5745 50.0673 33.9507L50.0011 34.0033C49.8338 34.1339 49.6451 34.284 49.5634 34.4925C48.9351 36.0828 48.3047 37.7122 47.6978 39.2888L47.085 40.8772H53.3881C54.5087 40.8753 55.6312 40.8772 56.7518 40.8772C60.2107 40.885 62.6366 43.3193 62.6483 46.7962L62.6522 47.4861C62.6561 48.5249 62.6619 49.6007 62.6405 50.6571C62.6289 51.1852 62.872 51.4152 63.2397 51.5984C68.9301 54.4419 71.8735 59.1311 71.9844 65.5353C72.0077 66.8489 72 68.184 71.9922 69.4761C71.9902 69.8873 71.9883 70.2986 71.9863 70.7098C71.9824 71.6843 71.6634 71.9981 70.6732 71.9981H37.1808C25.2243 71.9981 13.2677 71.9981 1.31117 71.9981V72ZM15.3338 42.8242C12.8028 42.8242 11.2931 44.3366 11.2912 46.8703C11.2892 54.2821 11.2912 61.6959 11.2912 69.1078C11.2912 69.2715 11.3009 69.4332 11.3106 69.6028C11.3145 69.6807 11.3204 69.7626 11.3242 69.8445L11.334 70.0296H60.7029V62.9471C60.7029 57.57 60.7029 52.1909 60.7029 46.8137C60.7029 44.3522 59.1602 42.8242 56.6778 42.8223C49.7735 42.8223 42.8712 42.8223 35.9669 42.8223H15.3318L15.3338 42.8242ZM62.6853 70.0062H70.0409V69.8113C70.0409 69.3066 70.0409 68.8057 70.0448 68.3067C70.0487 67.1803 70.0526 66.1161 70.037 65.0286C70.002 62.6606 69.3639 60.4408 68.1363 58.4295C66.8524 56.3266 65.1618 54.7538 62.9693 53.6234L62.6853 53.4772V70.0043V70.0062ZM9.08312 53.6623C9.03643 53.676 8.99558 53.6877 8.96251 53.6955C8.89442 53.713 8.83995 53.7286 8.78547 53.7559C8.63179 53.8319 8.47226 53.9099 8.31857 54.0034C5.62611 55.6503 3.72349 57.9968 2.66129 60.9767C1.9551 62.9549 1.92203 64.9799 1.95121 67.2329C1.959 67.8273 1.95705 68.4276 1.9551 69.0103C1.9551 69.2754 1.9551 69.9984 1.9551 69.9984H9.33603V53.5883L9.08507 53.6623H9.08312ZM35.9727 40.8753C38.6555 40.8753 41.2857 40.8811 43.7933 40.8928C44.3925 40.8928 44.7368 40.6843 45.0345 40.1522C46.9215 36.7708 48.1549 33.1516 48.6997 29.394C48.8261 28.5248 48.8942 27.6341 48.9603 26.7727C48.9915 26.3732 49.0226 25.9717 49.0576 25.5702L49.0771 25.3578H46.3068V25.5527C46.3068 25.9288 46.3087 26.2991 46.3107 26.6694C46.3146 27.4958 46.3204 28.2773 46.301 29.0744C46.2601 30.8635 44.8866 32.2551 43.1046 32.3116C42.6864 32.3253 42.2603 32.3311 41.8401 32.3311C41.4199 32.3311 40.99 32.3253 40.5659 32.3116C38.7916 32.2551 37.4162 30.8655 37.3637 29.0764C37.3559 28.8055 37.3579 28.5268 37.3598 28.2598C37.3598 28.135 37.3617 28.0083 37.3617 27.8856V27.6907H34.6343V28.2578C34.6362 28.5112 34.6382 28.7509 34.6343 28.9926C34.5954 30.885 33.1947 32.2843 31.2998 32.3175C31.0469 32.3214 30.7921 32.3233 30.5392 32.3233C30.3368 32.3233 30.1326 32.3233 29.9302 32.3233H29.4089C27.0121 32.3194 25.6912 30.9922 25.6892 28.5833C25.6892 27.8856 25.6892 25.5351 25.6892 25.5351V25.3402H23.1252L23.0785 25.4669C23.0649 25.502 23.0532 25.5293 23.0435 25.5527C23.0201 25.6072 22.9987 25.6579 22.9968 25.7222C22.9929 25.8879 22.989 26.0672 22.9968 26.2465C23.2419 31.2377 24.5881 35.9347 26.9966 40.2049C27.2767 40.6999 27.6074 40.8928 28.1794 40.8928C30.8796 40.8831 33.4981 40.8792 35.9727 40.8792V40.8753ZM20.5241 25.3558C19.6098 25.3558 18.9231 25.7554 18.5359 26.5115C18.1079 27.3515 18.2305 28.3124 18.8414 28.9049C19.3219 29.3707 19.8413 29.7858 20.3919 30.2262C20.635 30.4211 20.884 30.6199 21.1369 30.8304L21.4988 31.1306L20.9502 25.3773L20.7868 25.3656C20.6973 25.3578 20.6078 25.3558 20.5222 25.3558H20.5241ZM51.4602 25.3578C51.3766 25.3578 51.2929 25.3617 51.2054 25.3675L51.0419 25.3792L50.4953 31.1033L50.8532 30.8168C51.0867 30.6297 51.3104 30.4543 51.5244 30.2847C51.9835 29.9222 52.4154 29.5811 52.8337 29.2303C53.6546 28.5443 53.9114 27.5835 53.5224 26.6597C53.1702 25.8197 52.4368 25.3578 51.4563 25.3578H51.4602ZM27.6405 25.5449C27.6405 25.9054 27.6385 26.2601 27.6346 26.6129C27.6288 27.4607 27.623 28.2598 27.6522 29.0764C27.6794 29.8345 28.1833 30.3276 28.9673 30.3627C29.3661 30.3802 29.7688 30.388 30.1637 30.388C30.5586 30.388 30.9827 30.3783 31.3835 30.3607C32.1344 30.3256 32.6383 29.8403 32.6674 29.1251C32.7025 28.2909 32.6947 27.4373 32.6889 26.6109C32.685 26.2582 32.683 25.9035 32.683 25.5449V25.35H27.6405V25.5449ZM39.3149 25.5468C39.3149 25.9074 39.3111 26.266 39.3072 26.6207C39.2974 27.4841 39.2897 28.2987 39.3305 29.1329C39.3675 29.8735 39.8908 30.3451 40.6962 30.3666C41.0133 30.3744 41.3518 30.3783 41.7312 30.3783C42.1397 30.3783 42.5502 30.3744 42.9587 30.3685C43.7213 30.3588 44.2622 29.9242 44.303 29.2868C44.3614 28.3981 44.3497 27.4958 44.338 26.6226C44.3341 26.264 44.3283 25.9035 44.3283 25.5468V25.3519H39.313V25.5468H39.3149ZM29.1793 23.3718C30.5897 23.3718 31.9982 23.3718 33.4087 23.3757C34.3016 23.3757 34.6245 23.6992 34.6382 24.6035C34.6421 24.7965 34.6401 24.9894 34.6382 25.1863V25.6618H37.3306L37.3481 25.2993C37.354 25.1882 37.3598 25.0927 37.3598 24.9953C37.3793 23.5413 37.5485 23.3757 38.9998 23.3757H48.9915L48.9973 23.1866C49.188 16.8798 48.9389 16.0691 45.2076 10.7913L45.089 10.6237L44.9275 10.7523C44.7699 10.879 44.6162 10.9999 44.4645 11.1188C44.1396 11.376 43.8303 11.6177 43.5268 11.873C41.1728 13.8492 38.5193 14.8179 35.4144 14.8354C33.6285 14.8451 31.8698 15.422 30.189 16.5505C28.7533 17.5152 27.3117 18.4741 25.8721 19.433L23.9461 20.7154C22.8723 21.4326 22.7205 21.8789 23.0921 23.2334L23.131 23.3757H29.1754L29.1793 23.3718ZM37.8578 1.96454C36.1536 1.96454 34.4319 1.97039 32.7394 1.98013C27.837 2.00937 23.0415 2.99553 18.4873 4.9133C17.8103 5.19784 17.1625 5.50773 16.4777 5.8371C16.1664 5.98522 15.8532 6.13724 15.5361 6.28536L15.291 6.40035L15.4758 6.59719C15.5225 6.64591 15.5536 6.68489 15.5789 6.71218C15.6295 6.7726 15.6742 6.82327 15.752 6.84666C17.0282 7.22865 18.1196 8.17779 18.746 9.4446C19.4016 10.7738 19.4639 12.3037 18.9172 13.7479C18.6799 14.3774 18.674 15.2174 18.8997 15.7943C19.3141 16.8428 19.8316 17.8758 20.3315 18.8756C20.5358 19.2829 20.742 19.6941 20.9424 20.1112L21.0397 20.3119C21.0397 20.3119 22.8236 19.125 23.6135 18.5988C25.485 17.3534 27.2533 16.1782 29.0548 14.9679C31.0839 13.6056 33.255 12.904 35.5078 12.8845C38.0271 12.8631 40.2779 12.0426 42.2 10.4503C43.0735 9.72525 43.8711 9.086 44.6396 8.49157C44.8983 8.29278 45.1609 8.18753 45.4022 8.18753C45.692 8.18753 45.9449 8.34345 46.1336 8.63774C46.548 9.28284 46.9955 9.92599 47.4293 10.5477C48.9506 12.7325 50.5245 14.9933 50.9661 17.7958L51.3415 17.8309C51.4408 17.5561 51.54 17.2833 51.6411 17.0085C51.8532 16.4277 52.073 15.8274 52.2773 15.231C53.3453 12.101 52.8862 8.79366 51.0147 6.15673C49.1452 3.52175 46.1823 1.99962 42.8829 1.98208C41.2117 1.97234 39.5212 1.96844 37.8617 1.96844L37.8578 1.96454Z" fill="white" stroke="black" stroke-width="0.4" mask="url(#path-1-inside-1_5108_4664)"/>
<path d="M31.6255 61.6766V61.6765C31.6255 59.2727 33.5917 57.3174 36.0076 57.3173C38.4117 57.3269 40.3591 59.2783 40.3706 61.6672C40.3763 62.8371 39.9219 63.9401 39.0942 64.773C38.2666 65.606 37.1715 66.063 36.0078 66.063H36.0058H36.0039C33.5885 66.063 31.6236 64.0946 31.6255 61.6766ZM33.371 61.6317L33.3709 61.6319C33.3588 62.3426 33.6258 63.0175 34.1252 63.5259C34.6244 64.0341 35.2881 64.314 35.9961 64.314C37.4343 64.314 38.6111 63.1431 38.6212 61.7064L38.6212 61.7063C38.6293 60.2734 37.4686 59.0886 36.0328 59.0643L36.0328 59.0643H36.0311H35.9903C35.9896 59.0643 35.989 59.0643 35.9883 59.0643C34.5711 59.0653 33.3972 60.2154 33.371 61.6317Z" fill="white" stroke="black" stroke-width="0.2"/>
<path d="M27.972 54.8955L27.9718 54.8953C26.6294 53.5584 25.2892 52.2215 23.9548 50.8808L23.9548 50.8808C23.5973 50.5217 23.4434 50.2635 23.4399 50.0253C23.4364 49.7883 23.5815 49.5355 23.9277 49.1858C24.7856 48.3215 25.6461 47.4613 26.5107 46.5971C26.685 46.4228 26.8595 46.2483 27.0342 46.0737L27.0342 46.0736L28.1516 44.9561L29.3008 46.1248L25.5216 49.8668L25.4499 49.9378L25.5216 50.0089L29.3802 53.8362L28.089 55.0014C28.0496 54.9687 28.0094 54.9331 27.972 54.8955Z" fill="white" stroke="black" stroke-width="0.2"/>
<path d="M46.4332 50.0068L42.5904 46.245L43.8996 45.0403C44.2474 45.3867 44.6 45.7362 44.9525 46.0857L44.9525 46.0857C46.0613 47.1849 47.2048 48.3226 48.3228 49.466L48.3228 49.466C48.4958 49.643 48.5759 49.8343 48.5759 50.0186C48.5759 50.2028 48.4959 50.3935 48.323 50.5695L48.3228 50.5697C47.2126 51.7052 46.0595 52.8487 44.9427 53.9558L44.9427 53.9558C44.574 54.3215 44.2053 54.6873 43.8365 55.0547L42.6958 53.8442L46.4336 50.1494L46.5059 50.0779L46.4332 50.0068Z" fill="white" stroke="black" stroke-width="0.2"/>
<path d="M33.376 54.9634C33.3319 54.9353 33.2941 54.9103 33.258 54.8838C32.8945 54.6131 32.533 54.3424 32.1462 54.0503L33.376 54.9634ZM33.376 54.9634L40.0194 46.1105L38.6268 45.0633L31.9785 53.9233L32.1461 54.0502L33.376 54.9634ZM33.4604 55.0174L33.4038 55.0928H33.4009L33.4009 55.0885L33.45 55.0102C33.4533 55.0123 33.4569 55.0146 33.4604 55.0174Z" fill="white" stroke="black" stroke-width="0.2"/>
</g>
<defs>
<clipPath id="clip0_5108_4664">
<rect width="72" height="72" fill="white"/>
</clipPath>
</defs>
</svg>
