<svg width="18" height="16" viewBox="0 0 18 16" fill="none" xmlns="http://www.w3.org/2000/svg">
<path d="M6.36189 5.15525C6.36189 5.15525 3.20189 5.50525 1.09389 5.73925C0.90389 5.76225 0.73589 5.88925 0.67289 6.08225C0.60989 6.27525 0.67289 6.47625 0.81289 6.60325C2.37889 8.03225 4.73189 10.1723 4.73189 10.1723C4.72989 10.1723 4.08589 13.2852 3.65789 15.3622C3.62189 15.5502 3.68989 15.7492 3.85389 15.8682C4.01689 15.9872 4.22689 15.9892 4.39189 15.8962C6.23589 14.8482 8.99789 13.2722 8.99789 13.2722C8.99789 13.2722 11.7609 14.8482 13.6019 15.8972C13.7699 15.9892 13.9799 15.9872 14.1429 15.8682C14.3069 15.7492 14.3749 15.5502 14.3379 15.3632C13.9099 13.2852 13.2669 10.1723 13.2669 10.1723C13.2669 10.1723 15.6199 8.03225 17.1859 6.60625C17.3259 6.47525 17.3879 6.27425 17.3259 6.08225C17.2639 5.89025 17.0959 5.76325 16.9059 5.74125C14.7979 5.50525 11.6369 5.15525 11.6369 5.15525C11.6369 5.15525 10.3269 2.25725 9.45389 0.32525C9.37189 0.15225 9.19989 0.03125 8.99789 0.03125C8.79589 0.03125 8.62289 0.15325 8.54489 0.32525C7.67089 2.25725 6.36189 5.15525 6.36189 5.15525Z" fill="#119D60"/>
</svg>
