<svg width="16" height="16" viewBox="0 0 16 16" fill="none" xmlns="http://www.w3.org/2000/svg">
<path fill-rule="evenodd" clip-rule="evenodd" d="M8.27934 0.807617C4.08356 0.807617 0.708008 4.18317 0.708008 8.37894C0.708008 11.7229 2.88476 14.5622 5.88175 15.5717C6.26031 15.6348 6.3865 15.414 6.3865 15.1931C6.3865 15.0039 6.3865 14.5306 6.3865 13.8997C4.27284 14.3729 3.83118 12.8902 3.83118 12.8902C3.48416 12.0069 2.97941 11.786 2.97941 11.786C2.28537 11.3128 3.0425 11.3128 3.0425 11.3128C3.79963 11.3759 4.20975 12.1015 4.20975 12.1015C4.87224 13.2688 5.97639 12.9217 6.41805 12.7325C6.48115 12.2277 6.67043 11.9122 6.89126 11.7229C5.21926 11.5337 3.45261 10.8712 3.45261 7.96883C3.45261 7.1486 3.73654 6.45456 4.24129 5.94981C4.1782 5.76053 3.89427 5.00339 4.30439 3.93079C4.30439 3.93079 4.93533 3.74151 6.3865 4.71947C6.9859 4.56173 7.64839 4.46709 8.27934 4.46709C8.91028 4.46709 9.57277 4.56173 10.1722 4.71947C11.6233 3.74151 12.2543 3.93079 12.2543 3.93079C12.6644 4.97185 12.412 5.72898 12.3174 5.94981C12.7906 6.48611 13.1061 7.1486 13.1061 7.96883C13.1061 10.8712 11.3394 11.5021 9.63586 11.6914C9.91979 11.9122 10.1406 12.3854 10.1406 13.0795C10.1406 14.089 10.1406 14.9092 10.1406 15.1616C10.1406 15.3509 10.2668 15.6033 10.6769 15.5402C13.6739 14.5622 15.8507 11.7229 15.8507 8.37894C15.8507 4.18317 12.4751 0.807617 8.27934 0.807617Z" fill="white"/>
</svg>
