<svg width="17" height="17" viewBox="0 0 17 17" fill="none" xmlns="http://www.w3.org/2000/svg">
<path d="M8.83512 2.23386C10.9485 2.23386 11.1987 2.24177 12.0336 2.27984C12.5356 2.28599 13.0328 2.37816 13.5036 2.55235C13.845 2.68402 14.1551 2.88573 14.4138 3.14448C14.6726 3.40324 14.8743 3.71331 15.006 4.05473C15.1801 4.52554 15.2723 5.02273 15.2785 5.5247C15.3162 6.35956 15.3244 6.60983 15.3244 8.72319C15.3244 10.8365 15.3165 11.0868 15.2785 11.9217C15.2723 12.4236 15.1801 12.9208 15.006 13.3916C14.8743 13.7331 14.6726 14.0431 14.4138 14.3019C14.1551 14.5606 13.845 14.7624 13.5036 14.894C13.0328 15.0682 12.5356 15.1604 12.0336 15.1665C11.1991 15.2042 10.9489 15.2125 8.83512 15.2125C6.72138 15.2125 6.47111 15.2046 5.63662 15.1665C5.13466 15.1604 4.63747 15.0682 4.16666 14.894C3.82524 14.7624 3.51517 14.5606 3.25641 14.3019C2.99766 14.0431 2.79595 13.7331 2.66428 13.3916C2.49009 12.9208 2.39791 12.4236 2.39177 11.9217C2.35408 11.0868 2.34579 10.8365 2.34579 8.72319C2.34579 6.60983 2.3537 6.35956 2.39177 5.5247C2.39791 5.02273 2.49009 4.52554 2.66428 4.05473C2.79595 3.71331 2.99766 3.40324 3.25641 3.14448C3.51517 2.88573 3.82524 2.68402 4.16666 2.55235C4.63747 2.37816 5.13466 2.28599 5.63662 2.27984C6.47149 2.24215 6.72176 2.23386 8.83512 2.23386V2.23386ZM8.83512 0.807617C6.68671 0.807617 6.41608 0.816663 5.57179 0.855108C4.91485 0.868175 4.26488 0.992562 3.64953 1.22298C3.12166 1.42186 2.64355 1.73353 2.24854 2.13624C1.84547 2.53139 1.53354 3.00977 1.33453 3.53798C1.10411 4.15333 0.979726 4.8033 0.966659 5.46024C0.928968 6.30378 0.919922 6.5744 0.919922 8.72281C0.919922 10.8712 0.928968 11.1418 0.967413 11.9861C0.98048 12.6431 1.10487 13.293 1.33528 13.9084C1.53407 14.4365 1.84574 14.9149 2.24854 15.3101C2.64377 15.7129 3.12215 16.0246 3.65029 16.2234C4.26564 16.4538 4.91561 16.5782 5.57255 16.5913C6.41684 16.629 6.68633 16.6388 8.83587 16.6388C10.9854 16.6388 11.2549 16.6297 12.0992 16.5913C12.7561 16.5782 13.4061 16.4538 14.0215 16.2234C14.5471 16.0197 15.0244 15.7084 15.4229 15.3097C15.8214 14.9109 16.1323 14.4334 16.3357 13.9076C16.5661 13.2923 16.6905 12.6423 16.7036 11.9854C16.7413 11.1418 16.7503 10.8712 16.7503 8.72281C16.7503 6.5744 16.7413 6.30378 16.7028 5.45949C16.6898 4.80255 16.5654 4.15258 16.335 3.53723C16.1362 3.00909 15.8245 2.53071 15.4217 2.13548C15.0265 1.73269 14.5481 1.42101 14.0199 1.22222C13.4046 0.991808 12.7546 0.867421 12.0977 0.854355C11.2541 0.816663 10.9835 0.807617 8.83512 0.807617Z" fill="white"/>
<path d="M8.83613 4.6582C8.03222 4.6582 7.24636 4.89659 6.57793 5.34322C5.90951 5.78985 5.38853 6.42466 5.08089 7.16737C4.77325 7.91009 4.69275 8.72735 4.84959 9.51582C5.00642 10.3043 5.39354 11.0285 5.96199 11.597C6.53044 12.1654 7.25469 12.5525 8.04316 12.7094C8.83162 12.8662 9.64888 12.7857 10.3916 12.4781C11.1343 12.1704 11.7691 11.6495 12.2158 10.981C12.6624 10.3126 12.9008 9.52675 12.9008 8.72284C12.9008 7.64483 12.4725 6.61098 11.7103 5.84871C10.948 5.08644 9.91414 4.6582 8.83613 4.6582ZM8.83613 11.3612C8.3143 11.3612 7.80419 11.2065 7.37031 10.9166C6.93643 10.6267 6.59826 10.2146 6.39856 9.73251C6.19887 9.25041 6.14662 8.71992 6.24842 8.20812C6.35023 7.69632 6.60151 7.2262 6.9705 6.85721C7.33948 6.48823 7.8096 6.23694 8.3214 6.13514C8.8332 6.03334 9.36369 6.08559 9.8458 6.28528C10.3279 6.48498 10.74 6.82315 11.0299 7.25703C11.3198 7.69091 11.4745 8.20102 11.4745 8.72284C11.4745 9.42259 11.1966 10.0937 10.7018 10.5885C10.207 11.0833 9.53587 11.3612 8.83613 11.3612V11.3612Z" fill="white"/>
<path d="M13.0612 5.44847C13.5857 5.44847 14.011 5.02322 14.011 4.49865C14.011 3.97408 13.5857 3.54883 13.0612 3.54883C12.5366 3.54883 12.1113 3.97408 12.1113 4.49865C12.1113 5.02322 12.5366 5.44847 13.0612 5.44847Z" fill="white"/>
</svg>
