<svg width="14" height="12" viewBox="0 0 14 12" fill="none" xmlns="http://www.w3.org/2000/svg">
<path d="M13.6097 2.19763C13.1201 2.41523 12.6033 2.55123 12.0593 2.63283C12.6033 2.30643 13.0385 1.78963 13.2289 1.16403C12.7121 1.46323 12.1409 1.68083 11.5153 1.81683C11.0257 1.30003 10.3185 0.973633 9.5569 0.973633C8.0881 0.973633 6.89131 2.17043 6.89131 3.63923C6.89131 3.85683 6.91851 4.04723 6.97291 4.23763C4.76971 4.12883 2.78411 3.06803 1.45131 1.43603C1.23371 1.84403 1.09771 2.27923 1.09771 2.76883C1.09771 3.69363 1.56011 4.50963 2.29451 4.99923C1.85931 4.97203 1.45131 4.86323 1.07051 4.67283V4.70003C1.07051 6.00563 1.99531 7.09363 3.21931 7.33843C3.00171 7.39283 2.75691 7.42003 2.51211 7.42003C2.34891 7.42003 2.15851 7.39283 1.99531 7.36563C2.34891 8.42643 3.32811 9.21523 4.49771 9.21523C3.57291 9.92243 2.43051 10.3576 1.17931 10.3576C0.961711 10.3576 0.744111 10.3576 0.553711 10.3304C1.75051 11.092 3.13771 11.5272 4.66091 11.5272C9.5841 11.5272 12.2769 7.44723 12.2769 3.91123C12.2769 3.80243 12.2769 3.66643 12.2769 3.55763C12.7937 3.20403 13.2561 2.74163 13.6097 2.19763Z" fill="white"/>
</svg>
