<svg width="1440" height="740" viewBox="0 0 1440 740" fill="none" xmlns="http://www.w3.org/2000/svg">
<g clip-path="url(#clip0_2064_2)">
<mask id="mask0_2064_2" style="mask-type:alpha" maskUnits="userSpaceOnUse" x="0" y="0" width="1440" height="740">
<path opacity="0.4" d="M1440 0H0V740H1440V0Z" fill="url(#paint0_linear_2064_2)"/>
</mask>
<g mask="url(#mask0_2064_2)">
<path d="M1621 375.5C1621 629.809 1413.5 836 1157.5 836C901.498 836 694 629.809 694 375.5C694 121.191 901.498 -85 1157.5 -85C1413.5 -85 1621 121.191 1621 375.5Z" fill="url(#paint1_linear_2064_2)" stroke="url(#paint2_linear_2064_2)" stroke-width="6"/>
</g>
<g opacity="0.7">
<path d="M1340 598C1365.41 598 1386 577.405 1386 552C1386 526.595 1365.41 506 1340 506C1314.59 506 1294 526.595 1294 552C1294 577.405 1314.59 598 1340 598Z" fill="url(#paint3_linear_2064_2)"/>
<path d="M1340 570C1349.94 570 1358 561.941 1358 552C1358 542.059 1349.94 534 1340 534C1330.06 534 1322 542.059 1322 552C1322 561.941 1330.06 570 1340 570Z" fill="url(#paint4_linear_2064_2)"/>
<mask id="mask1_2064_2" style="mask-type:luminance" maskUnits="userSpaceOnUse" x="1331" y="543" width="18" height="18">
<path d="M1349 543H1331V561H1349V543Z" fill="white"/>
</mask>
<g mask="url(#mask1_2064_2)">
<path d="M1334.73 557.625C1335.82 557.625 1336.7 556.744 1336.7 555.656C1336.7 554.569 1335.82 553.688 1334.73 553.688C1333.64 553.688 1332.76 554.569 1332.76 555.656C1332.76 556.744 1333.64 557.625 1334.73 557.625Z" stroke="#212121" stroke-linecap="round" stroke-linejoin="round"/>
<path d="M1337.9 560.437C1337.67 559.78 1337.24 559.21 1336.68 558.807C1336.11 558.404 1335.43 558.187 1334.73 558.187C1334.04 558.187 1333.36 558.404 1332.79 558.807C1332.22 559.21 1331.79 559.78 1331.56 560.437" stroke="#212121" stroke-linecap="round" stroke-linejoin="round"/>
<path d="M1337.75 550.312V552L1335.5 550.312H1332.69C1332.39 550.312 1332.1 550.194 1331.89 549.983C1331.68 549.772 1331.56 549.486 1331.56 549.188V544.688C1331.56 544.389 1331.68 544.103 1331.89 543.892C1332.1 543.681 1332.39 543.562 1332.69 543.562H1338.87" stroke="#212121" stroke-linecap="round" stroke-linejoin="round"/>
<path d="M1333.81 546.938L1334.94 548.062L1337.75 545.812" stroke="#212121" stroke-linecap="round" stroke-linejoin="round"/>
<path d="M1345.27 557.625C1346.36 557.625 1347.24 556.744 1347.24 555.656C1347.24 554.569 1346.36 553.688 1345.27 553.688C1344.18 553.688 1343.3 554.569 1343.3 555.656C1343.3 556.744 1344.18 557.625 1345.27 557.625Z" stroke="#212121" stroke-linecap="round" stroke-linejoin="round"/>
<path d="M1342.1 560.437C1342.33 559.78 1342.76 559.21 1343.33 558.807C1343.89 558.404 1344.57 558.187 1345.27 558.187C1345.96 558.187 1346.64 558.404 1347.21 558.807C1347.78 559.21 1348.21 559.78 1348.44 560.437" stroke="#212121" stroke-linecap="round" stroke-linejoin="round"/>
<path d="M1341.12 552H1341.69V553.688L1343.94 552H1347.31C1347.61 552 1347.9 551.881 1348.11 551.67C1348.32 551.46 1348.44 551.173 1348.44 550.875V546.375C1348.44 546.077 1348.32 545.79 1348.11 545.58C1347.9 545.369 1347.61 545.25 1347.31 545.25H1341.12C1340.83 545.25 1340.54 545.369 1340.33 545.58C1340.12 545.79 1340 546.077 1340 546.375V550.875C1340 551.173 1340.12 551.46 1340.33 551.67C1340.54 551.881 1340.83 552 1341.12 552Z" stroke="#212121" stroke-linecap="round" stroke-linejoin="round"/>
<path d="M1345.62 549.75L1342.81 547.5" stroke="#212121" stroke-linecap="round" stroke-linejoin="round"/>
<path d="M1342.81 549.75L1345.62 547.5" stroke="#212121" stroke-linecap="round" stroke-linejoin="round"/>
</g>
</g>
<g opacity="0.7">
<path d="M983 236C1008.41 236 1029 215.405 1029 190C1029 164.595 1008.41 144 983 144C957.595 144 937 164.595 937 190C937 215.405 957.595 236 983 236Z" fill="url(#paint5_linear_2064_2)"/>
<path d="M982.5 207C992.165 207 1000 199.165 1000 189.5C1000 179.835 992.165 172 982.5 172C972.835 172 965 179.835 965 189.5C965 199.165 972.835 207 982.5 207Z" fill="url(#paint6_linear_2064_2)"/>
<mask id="mask2_2064_2" style="mask-type:luminance" maskUnits="userSpaceOnUse" x="974" y="181" width="18" height="18">
<path d="M992 181H974V199H992V181Z" fill="white"/>
</mask>
<g mask="url(#mask2_2064_2)">
<path d="M991.352 198.437L991.427 197.596C991.477 197.051 991.326 196.507 991.003 196.065C990.681 195.624 990.208 195.315 989.674 195.196L986.936 194.588V190.281C986.936 190.092 986.898 189.905 986.824 189.73C986.75 189.556 986.641 189.399 986.505 189.267C986.368 189.136 986.207 189.034 986.03 188.966C985.853 188.899 985.664 188.868 985.475 188.875C985.293 188.874 985.112 188.91 984.944 188.981C984.776 189.053 984.624 189.157 984.498 189.289C984.372 189.42 984.274 189.576 984.21 189.747C984.145 189.918 984.117 190.1 984.125 190.282V197.182L983.017 196.351C982.796 196.186 982.523 196.106 982.247 196.125C981.971 196.145 981.712 196.264 981.517 196.459C981.321 196.654 981.203 196.914 981.183 197.189C981.163 197.465 981.243 197.738 981.408 197.96L981.764 198.434" stroke="black" stroke-linecap="round" stroke-linejoin="round"/>
<path d="M979.062 195.49H975.688C975.389 195.49 975.104 195.371 974.893 195.16C974.682 194.95 974.562 194.663 974.562 194.365V182.688C974.562 182.389 974.682 182.103 974.893 181.892C975.104 181.681 975.389 181.562 975.688 181.562H985.812C986.111 181.562 986.397 181.681 986.608 181.892C986.819 182.103 986.938 182.389 986.938 182.688V186.625" stroke="black" stroke-linecap="round" stroke-linejoin="round"/>
<path d="M980.75 187.75C981.837 187.75 982.719 186.869 982.719 185.781C982.719 184.694 981.837 183.812 980.75 183.812C979.663 183.812 978.781 184.694 978.781 185.781C978.781 186.869 979.663 187.75 980.75 187.75Z" stroke="black" stroke-linecap="round" stroke-linejoin="round"/>
<path d="M982.264 188.664C981.793 188.432 981.275 188.312 980.751 188.313C980.055 188.314 979.376 188.531 978.809 188.934C978.242 189.337 977.813 189.906 977.583 190.563C977.454 190.924 977.387 191.304 977.385 191.688" stroke="black" stroke-linecap="round" stroke-linejoin="round"/>
<path d="M977.375 191.688H981.875" stroke="black" stroke-linecap="round" stroke-linejoin="round"/>
</g>
</g>
<g opacity="0.7">
<path d="M1222 198C1257.35 198 1286 169.346 1286 134C1286 98.6538 1257.35 70 1222 70C1186.65 70 1158 98.6538 1158 134C1158 169.346 1186.65 198 1222 198Z" fill="url(#paint7_linear_2064_2)"/>
<path d="M1222 158C1236.36 158 1248 146.359 1248 132C1248 117.641 1236.36 106 1222 106C1207.64 106 1196 117.641 1196 132C1196 146.359 1207.64 158 1222 158Z" fill="url(#paint8_linear_2064_2)"/>
<path d="M1225.74 140.94C1230.73 138.816 1233.06 133.044 1230.94 128.047C1228.82 123.051 1223.04 120.721 1218.05 122.845C1213.05 124.969 1210.72 130.741 1212.85 135.737C1214.97 140.734 1220.74 143.063 1225.74 140.94Z" stroke="#212121" stroke-width="1.5" stroke-linecap="round" stroke-linejoin="round"/>
<path d="M1228.84 138.845L1235 145" stroke="#212121" stroke-width="1.5" stroke-linecap="round" stroke-linejoin="round"/>
<path d="M1221.89 131.893C1223.7 131.893 1225.17 130.426 1225.17 128.616C1225.17 126.806 1223.7 125.339 1221.89 125.339C1220.08 125.339 1218.62 126.806 1218.62 128.616C1218.62 130.426 1220.08 131.893 1221.89 131.893Z" stroke="#212121" stroke-width="1.5" stroke-linecap="round" stroke-linejoin="round"/>
<path d="M1221.89 133.531V138.446" stroke="#212121" stroke-width="1.5" stroke-linecap="round" stroke-linejoin="round"/>
<path d="M1226.51 136.809C1226.17 135.851 1225.55 135.021 1224.72 134.433C1223.9 133.846 1222.91 133.53 1221.89 133.53C1220.88 133.53 1219.89 133.846 1219.06 134.433C1218.23 135.021 1217.61 135.851 1217.28 136.809" stroke="#212121" stroke-width="1.5" stroke-linecap="round" stroke-linejoin="round"/>
</g>
<g opacity="0.7">
<path d="M1364 256C1386.64 256 1405 237.644 1405 215C1405 192.356 1386.64 174 1364 174C1341.36 174 1323 192.356 1323 215C1323 237.644 1341.36 256 1364 256Z" fill="url(#paint9_linear_2064_2)"/>
<path d="M1364 229.297C1372.6 229.297 1379.58 222.323 1379.58 213.719C1379.58 205.115 1372.6 198.141 1364 198.141C1355.4 198.141 1348.42 205.115 1348.42 213.719C1348.42 222.323 1355.4 229.297 1364 229.297Z" fill="url(#paint10_linear_2064_2)" stroke="url(#paint11_linear_2064_2)" stroke-width="6"/>
<path d="M1364 237.5C1376.98 237.5 1387.5 226.979 1387.5 214C1387.5 201.021 1376.98 190.5 1364 190.5C1351.02 190.5 1340.5 201.021 1340.5 214C1340.5 226.979 1351.02 237.5 1364 237.5Z" fill="url(#paint12_linear_2064_2)"/>
<mask id="mask3_2064_2" style="mask-type:luminance" maskUnits="userSpaceOnUse" x="1351" y="201" width="26" height="26">
<path d="M1377 201H1351V227H1377V201Z" fill="white"/>
</mask>
<g mask="url(#mask3_2064_2)">
<path d="M1356.39 222.125C1357.96 222.125 1359.23 220.852 1359.23 219.281C1359.23 217.711 1357.96 216.438 1356.39 216.438C1354.82 216.438 1353.54 217.711 1353.54 219.281C1353.54 220.852 1354.82 222.125 1356.39 222.125Z" stroke="#212121" stroke-width="1.5" stroke-linecap="round" stroke-linejoin="round"/>
<path d="M1360.97 226.188C1360.64 225.238 1360.02 224.415 1359.2 223.832C1358.38 223.25 1357.4 222.937 1356.39 222.937C1355.38 222.937 1354.4 223.25 1353.58 223.832C1352.76 224.415 1352.14 225.238 1351.81 226.188" stroke="#212121" stroke-width="1.5" stroke-linecap="round" stroke-linejoin="round"/>
<path d="M1360.75 211.563V214L1357.5 211.563H1353.44C1353.01 211.563 1352.59 211.391 1352.29 211.087C1351.98 210.782 1351.81 210.369 1351.81 209.938V203.438C1351.81 203.007 1351.98 202.593 1352.29 202.289C1352.59 201.984 1353.01 201.813 1353.44 201.813H1362.38" stroke="#212121" stroke-width="1.5" stroke-linecap="round" stroke-linejoin="round"/>
<path d="M1355.06 206.688L1356.69 208.313L1360.75 205.063" stroke="#212121" stroke-width="1.5" stroke-linecap="round" stroke-linejoin="round"/>
<path d="M1371.61 222.125C1373.18 222.125 1374.45 220.852 1374.45 219.281C1374.45 217.711 1373.18 216.438 1371.61 216.438C1370.04 216.438 1368.77 217.711 1368.77 219.281C1368.77 220.852 1370.04 222.125 1371.61 222.125Z" stroke="#212121" stroke-width="1.5" stroke-linecap="round" stroke-linejoin="round"/>
<path d="M1367.03 226.188C1367.36 225.238 1367.98 224.415 1368.8 223.832C1369.62 223.25 1370.6 222.937 1371.61 222.937C1372.62 222.937 1373.6 223.25 1374.42 223.832C1375.24 224.415 1375.86 225.238 1376.19 226.188" stroke="#212121" stroke-width="1.5" stroke-linecap="round" stroke-linejoin="round"/>
<path d="M1365.63 214H1366.44V216.438L1369.69 214H1374.56C1374.99 214 1375.41 213.829 1375.71 213.524C1376.02 213.219 1376.19 212.806 1376.19 212.375V205.875C1376.19 205.444 1376.02 205.031 1375.71 204.726C1375.41 204.421 1374.99 204.25 1374.56 204.25H1365.63C1365.19 204.25 1364.78 204.421 1364.48 204.726C1364.17 205.031 1364 205.444 1364 205.875V212.375C1364 212.806 1364.17 213.219 1364.48 213.524C1364.78 213.829 1365.19 214 1365.63 214Z" stroke="#212121" stroke-width="1.5" stroke-linecap="round" stroke-linejoin="round"/>
<path d="M1372.12 210.75L1368.06 207.5" stroke="#212121" stroke-width="1.5" stroke-linecap="round" stroke-linejoin="round"/>
<path d="M1368.06 210.75L1372.12 207.5" stroke="#212121" stroke-width="1.5" stroke-linecap="round" stroke-linejoin="round"/>
</g>
</g>
<g opacity="0.7">
<path d="M1101 106C1123.64 106 1142 87.6437 1142 65C1142 42.3563 1123.64 24 1101 24C1078.36 24 1060 42.3563 1060 65C1060 87.6437 1078.36 106 1101 106Z" fill="url(#paint13_linear_2064_2)"/>
<path d="M1101 79.2968C1109.6 79.2968 1116.58 72.3223 1116.58 63.7187C1116.58 55.1152 1109.6 48.1406 1101 48.1406C1092.4 48.1406 1085.42 55.1152 1085.42 63.7187C1085.42 72.3223 1092.4 79.2968 1101 79.2968Z" fill="url(#paint14_linear_2064_2)" stroke="url(#paint15_linear_2064_2)" stroke-width="6"/>
<path d="M1102 88.5C1114.98 88.5 1125.5 77.9787 1125.5 65C1125.5 52.0213 1114.98 41.5 1102 41.5C1089.02 41.5 1078.5 52.0213 1078.5 65C1078.5 77.9787 1089.02 88.5 1102 88.5Z" fill="url(#paint16_linear_2064_2)"/>
<path d="M1093.38 72.75C1095.07 72.75 1096.44 71.3789 1096.44 69.6875C1096.44 67.9961 1095.07 66.625 1093.38 66.625C1091.68 66.625 1090.31 67.9961 1090.31 69.6875C1090.31 71.3789 1091.68 72.75 1093.38 72.75Z" stroke="#212121" stroke-width="1.5" stroke-linecap="round" stroke-linejoin="round"/>
<path d="M1097.75 76.25C1097.33 75.4571 1096.7 74.794 1095.93 74.3316C1095.16 73.8692 1094.27 73.625 1093.37 73.625C1092.48 73.625 1091.59 73.8692 1090.82 74.3316C1090.05 74.794 1089.42 75.4571 1089 76.25" stroke="#212121" stroke-width="1.5" stroke-linecap="round" stroke-linejoin="round"/>
<path d="M1110.88 72.75C1112.57 72.75 1113.94 71.3789 1113.94 69.6875C1113.94 67.9961 1112.57 66.625 1110.88 66.625C1109.18 66.625 1107.81 67.9961 1107.81 69.6875C1107.81 71.3789 1109.18 72.75 1110.88 72.75Z" stroke="#212121" stroke-width="1.5" stroke-linecap="round" stroke-linejoin="round"/>
<path d="M1115.25 76.25C1114.83 75.4571 1114.2 74.794 1113.43 74.3316C1112.66 73.8692 1111.77 73.625 1110.88 73.625C1109.98 73.625 1109.09 73.8692 1108.32 74.3316C1107.55 74.794 1106.92 75.4571 1106.5 76.25" stroke="#212121" stroke-width="1.5" stroke-linecap="round" stroke-linejoin="round"/>
<path d="M1102.12 56.125C1103.82 56.125 1105.19 54.7539 1105.19 53.0625C1105.19 51.3711 1103.82 50 1102.12 50C1100.43 50 1099.06 51.3711 1099.06 53.0625C1099.06 54.7539 1100.43 56.125 1102.12 56.125Z" stroke="#212121" stroke-width="1.5" stroke-linecap="round" stroke-linejoin="round"/>
<path d="M1105.92 58.7502C1105.45 58.2012 1104.87 57.7603 1104.21 57.4579C1103.56 57.1556 1102.84 56.999 1102.12 56.999C1101.4 56.999 1100.69 57.1556 1100.04 57.4579C1099.38 57.7603 1098.8 58.2012 1098.33 58.7502" stroke="#212121" stroke-width="1.5" stroke-linecap="round" stroke-linejoin="round"/>
<path d="M1098.68 72.1165C1100.92 72.9683 1103.39 72.9609 1105.62 72.0955" stroke="#212121" stroke-width="1.5" stroke-linecap="round" stroke-linejoin="round"/>
<path d="M1095.53 56.125C1094.57 57.022 1093.81 58.1062 1093.29 59.3103C1092.77 60.5143 1092.5 61.8127 1092.5 63.125C1092.5 63.4202 1092.52 63.7083 1092.54 64" stroke="#212121" stroke-width="1.5" stroke-linecap="round" stroke-linejoin="round"/>
<path d="M1111.71 64C1111.73 63.7107 1111.75 63.4167 1111.75 63.125C1111.75 61.8127 1111.48 60.5142 1110.96 59.3101C1110.44 58.106 1109.67 57.0219 1108.72 56.125" stroke="#212121" stroke-width="1.5" stroke-linecap="round" stroke-linejoin="round"/>
</g>
<g opacity="0.7">
<path d="M1167 730C1189.64 730 1208 711.644 1208 689C1208 666.356 1189.64 648 1167 648C1144.36 648 1126 666.356 1126 689C1126 711.644 1144.36 730 1167 730Z" fill="url(#paint17_linear_2064_2)"/>
<path d="M1167 703.297C1175.6 703.297 1182.58 696.322 1182.58 687.719C1182.58 679.115 1175.6 672.141 1167 672.141C1158.4 672.141 1151.42 679.115 1151.42 687.719C1151.42 696.322 1158.4 703.297 1167 703.297Z" fill="url(#paint18_linear_2064_2)" stroke="url(#paint19_linear_2064_2)" stroke-width="6"/>
<path d="M1168 712.5C1180.98 712.5 1191.5 701.979 1191.5 689C1191.5 676.021 1180.98 665.5 1168 665.5C1155.02 665.5 1144.5 676.021 1144.5 689C1144.5 701.979 1155.02 712.5 1168 712.5Z" fill="url(#paint20_linear_2064_2)"/>
<mask id="mask4_2064_2" style="mask-type:luminance" maskUnits="userSpaceOnUse" x="1155" y="676" width="26" height="26">
<path d="M1181 676H1155V702H1181V676Z" fill="white"/>
</mask>
<g mask="url(#mask4_2064_2)">
<path d="M1179.93 701.187L1180.04 699.972C1180.11 699.185 1179.89 698.399 1179.42 697.761C1178.96 697.123 1178.28 696.677 1177.51 696.505L1173.55 695.627V689.406C1173.51 688.87 1173.27 688.369 1172.88 687.998C1172.49 687.626 1171.98 687.411 1171.44 687.391C1170.91 687.404 1170.42 687.623 1170.05 688C1169.69 688.377 1169.48 688.882 1169.49 689.406V699.373L1167.89 698.178C1167.57 697.939 1167.18 697.823 1166.78 697.852C1166.38 697.881 1166.01 698.052 1165.72 698.334C1165.44 698.616 1165.27 698.991 1165.24 699.389C1165.21 699.787 1165.33 700.182 1165.57 700.502L1166.08 701.187" stroke="#212121" stroke-width="1.5" stroke-linecap="round" stroke-linejoin="round"/>
<path d="M1171.11 682.5C1172.69 682.5 1173.96 681.227 1173.96 679.656C1173.96 678.086 1172.69 676.812 1171.11 676.812C1169.54 676.812 1168.27 678.086 1168.27 679.656C1168.27 681.227 1169.54 682.5 1171.11 682.5Z" stroke="#212121" stroke-width="1.5" stroke-linecap="round" stroke-linejoin="round"/>
<path d="M1175.18 685.75C1174.78 685.014 1174.2 684.398 1173.48 683.969C1172.77 683.539 1171.95 683.312 1171.11 683.312C1170.28 683.312 1169.46 683.539 1168.75 683.969C1168.03 684.398 1167.44 685.014 1167.05 685.75" stroke="#212121" stroke-width="1.5" stroke-linecap="round" stroke-linejoin="round"/>
<path d="M1159.74 692.25C1161.31 692.25 1162.58 690.977 1162.58 689.406C1162.58 687.836 1161.31 686.562 1159.74 686.562C1158.17 686.562 1156.9 687.836 1156.9 689.406C1156.9 690.977 1158.17 692.25 1159.74 692.25Z" stroke="#212121" stroke-width="1.5" stroke-linecap="round" stroke-linejoin="round"/>
<path d="M1163.8 695.5C1163.41 694.764 1162.82 694.148 1162.11 693.719C1161.39 693.289 1160.57 693.062 1159.74 693.062C1158.91 693.062 1158.09 693.289 1157.37 693.719C1156.66 694.148 1156.07 694.764 1155.68 695.5" stroke="#212121" stroke-width="1.5" stroke-linecap="round" stroke-linejoin="round"/>
<path d="M1165.43 680.875H1163.8" stroke="#212121" stroke-width="1.5" stroke-linecap="round" stroke-linejoin="round"/>
<path d="M1165.43 677.625L1163.8 676.812" stroke="#212121" stroke-width="1.5" stroke-linecap="round" stroke-linejoin="round"/>
<path d="M1176.8 680.875H1178.43" stroke="#212121" stroke-width="1.5" stroke-linecap="round" stroke-linejoin="round"/>
<path d="M1176.8 677.625L1178.43 676.812" stroke="#212121" stroke-width="1.5" stroke-linecap="round" stroke-linejoin="round"/>
</g>
</g>
<g opacity="0.7">
<path d="M970 613C1005.35 613 1034 584.346 1034 549C1034 513.654 1005.35 485 970 485C934.654 485 906 513.654 906 549C906 584.346 934.654 613 970 613Z" fill="url(#paint21_linear_2064_2)"/>
<path d="M970 575C984.359 575 996 563.359 996 549C996 534.641 984.359 523 970 523C955.641 523 944 534.641 944 549C944 563.359 955.641 575 970 575Z" fill="url(#paint22_linear_2064_2)"/>
<mask id="mask5_2064_2" style="mask-type:luminance" maskUnits="userSpaceOnUse" x="957" y="536" width="26" height="26">
<path d="M983 536H957V562H983V536Z" fill="white"/>
</mask>
<g mask="url(#mask5_2064_2)">
<path d="M966.75 540.06L970 536.81L973.25 540.06" stroke="#212121" stroke-width="1.5" stroke-linecap="round" stroke-linejoin="round"/>
<path d="M973.25 557.935L970 561.185L966.75 557.935" stroke="#212121" stroke-width="1.5" stroke-linecap="round" stroke-linejoin="round"/>
<path d="M970 536.81V561.185" stroke="#212121" stroke-width="1.5" stroke-linecap="round" stroke-linejoin="round"/>
<path d="M961.063 552.248L957.812 548.998L961.063 545.748" stroke="#212121" stroke-width="1.5" stroke-linecap="round" stroke-linejoin="round"/>
<path d="M978.938 545.748L982.188 548.998L978.938 552.248" stroke="#212121" stroke-width="1.5" stroke-linecap="round" stroke-linejoin="round"/>
<path d="M957.812 548.998H982.188" stroke="#212121" stroke-width="1.5" stroke-linecap="round" stroke-linejoin="round"/>
</g>
</g>
<path d="M1157 538C1249.78 538 1325 465.47 1325 376C1325 286.53 1249.78 214 1157 214C1064.22 214 989 286.53 989 376C989 465.47 1064.22 538 1157 538Z" fill="url(#paint23_linear_2064_2)"/>
<path d="M1157 496C1225.48 496 1281 442.274 1281 376C1281 309.726 1225.48 256 1157 256C1088.52 256 1033 309.726 1033 376C1033 442.274 1088.52 496 1157 496Z" fill="url(#paint24_linear_2064_2)"/>
<mask id="mask6_2064_2" style="mask-type:luminance" maskUnits="userSpaceOnUse" x="1097" y="316" width="120" height="121">
<path d="M1217 316H1097V436.053H1217V316Z" fill="white"/>
</mask>
<g mask="url(#mask6_2064_2)">
<path d="M1153.76 380.822C1153.34 380.822 1152.97 380.664 1152.65 380.348C1152.02 379.715 1152.02 378.714 1152.65 378.134L1203.3 327.489C1203.93 326.856 1204.93 326.856 1205.51 327.489C1206.09 328.121 1206.14 329.123 1205.51 329.702L1154.87 380.348C1154.55 380.664 1154.13 380.822 1153.76 380.822Z" fill="#212121"/>
<path d="M1153.76 407.331C1146.28 407.331 1139.21 404.432 1133.89 399.109C1128.62 393.787 1125.67 386.777 1125.67 379.241C1125.67 371.758 1128.62 364.696 1133.89 359.426C1143.64 349.676 1158.87 348.411 1170.1 356.474C1170.78 357.001 1170.94 357.95 1170.47 358.688C1169.94 359.373 1168.99 359.531 1168.25 359.057C1158.29 351.889 1144.8 352.996 1136.1 361.639C1131.41 366.329 1128.83 372.601 1128.83 379.241C1128.83 385.881 1131.41 392.153 1136.16 396.843C1140.85 401.534 1147.12 404.169 1153.76 404.169C1160.4 404.169 1166.67 401.586 1171.41 396.843C1180.11 388.148 1181.16 374.656 1174 364.696C1173.47 364.011 1173.63 363.009 1174.37 362.482C1175.05 361.955 1176.05 362.113 1176.58 362.851C1184.64 374.076 1183.43 389.307 1173.63 399.057C1168.3 404.432 1161.24 407.331 1153.76 407.331Z" fill="#212121"/>
<path d="M1153.76 436.053C1138.58 436.053 1124.35 430.15 1113.6 419.399C1091.47 397.265 1091.47 361.217 1113.6 339.083C1133.15 319.531 1163.72 316.843 1186.33 332.759C1187.01 333.233 1187.22 334.235 1186.7 334.972C1186.22 335.657 1185.22 335.868 1184.48 335.341C1163.19 320.374 1134.31 322.851 1115.81 341.349C1105.7 351.468 1100.11 364.959 1100.11 379.241C1100.11 393.576 1105.7 407.015 1115.81 417.186C1125.93 427.304 1139.42 432.891 1153.76 432.891C1168.09 432.891 1181.53 427.304 1191.7 417.186C1209.94 398.951 1212.63 370.335 1198.08 349.044C1197.61 348.306 1197.76 347.357 1198.5 346.883C1199.24 346.408 1200.19 346.567 1200.66 347.304C1216.05 369.808 1213.21 400.111 1193.92 419.399C1183.17 430.15 1168.94 436.053 1153.76 436.053Z" fill="#212121"/>
<path d="M1150.91 383.668C1150.39 383.668 1149.86 383.352 1149.54 382.877C1149.17 382.245 1149.28 381.507 1149.81 380.98L1155.08 375.71C1155.71 375.078 1156.71 375.078 1157.29 375.71C1157.92 376.343 1157.92 377.291 1157.29 377.924L1156.13 379.083L1158.82 378.398C1159.66 378.187 1160.5 378.661 1160.72 379.505C1160.93 380.348 1160.45 381.191 1159.61 381.402L1151.28 383.615C1151.23 383.615 1151.07 383.668 1150.91 383.668Z" fill="#212121"/>
<path d="M1150.91 383.668C1150.65 383.668 1150.39 383.615 1150.12 383.457C1149.49 383.088 1149.23 382.403 1149.38 381.718L1151.6 373.391C1151.81 372.548 1152.7 372.074 1153.5 372.285C1154.34 372.495 1154.81 373.339 1154.6 374.182L1153.86 376.87L1155.02 375.71C1155.66 375.078 1156.66 375.078 1157.24 375.71C1157.87 376.343 1157.87 377.291 1157.24 377.924L1151.97 383.194C1151.76 383.51 1151.33 383.668 1150.91 383.668Z" fill="#212121"/>
<path d="M1202.56 343.721C1202.51 343.721 1191.12 343.457 1191.12 343.457C1190.28 343.457 1189.6 342.772 1189.6 341.929L1189.33 330.493C1189.33 330.071 1189.49 329.65 1189.81 329.333L1202.67 316.474C1203.09 316.053 1203.77 315.895 1204.35 316.105C1204.93 316.316 1205.3 316.843 1205.35 317.476L1205.93 327.12L1215.58 327.7C1216.21 327.752 1216.74 328.121 1216.95 328.701C1217.16 329.281 1217 329.913 1216.58 330.387L1203.72 343.246C1203.4 343.563 1202.98 343.721 1202.56 343.721ZM1192.7 340.348L1201.98 340.559L1211.89 330.651L1204.35 330.177C1203.56 330.124 1202.93 329.491 1202.88 328.701L1202.4 321.165L1192.49 331.072L1192.7 340.348Z" fill="#212121"/>
<path d="M1197.08 400.427C1196.87 400.427 1196.66 400.374 1196.45 400.269C1195.66 399.9 1195.29 399.004 1195.66 398.213C1196.18 397.054 1196.66 395.895 1197.08 394.683C1197.4 393.839 1198.29 393.418 1199.08 393.734C1199.92 394.05 1200.35 394.946 1200.03 395.737C1199.56 397.001 1199.08 398.266 1198.5 399.478C1198.29 400.111 1197.71 400.427 1197.08 400.427Z" fill="#212121"/>
<path d="M1200.66 388.675C1199.56 388.517 1198.98 387.726 1199.13 386.83C1199.56 384.353 1199.77 381.771 1199.77 379.241V378.767C1199.77 377.924 1200.45 377.186 1201.35 377.186C1202.19 377.239 1202.93 377.871 1202.93 378.767V379.294C1202.93 381.982 1202.72 384.722 1202.24 387.41C1202.09 388.148 1201.4 388.675 1200.66 388.675ZM1200.5 372.021C1199.77 372.021 1199.08 371.494 1198.98 370.756C1198.5 368.121 1197.76 365.486 1196.76 362.957C1196.45 362.166 1196.87 361.217 1197.66 360.954C1198.45 360.638 1199.4 361.059 1199.66 361.85C1200.66 364.538 1201.45 367.331 1201.98 370.177C1202.14 371.02 1201.56 371.863 1200.72 372.021C1200.66 372.021 1200.56 372.021 1200.5 372.021Z" fill="#212121"/>
<path d="M1194.6 356.422C1194.08 356.422 1193.55 356.158 1193.23 355.684C1192.6 354.577 1191.86 353.523 1191.12 352.522C1190.6 351.837 1190.75 350.835 1191.49 350.308C1192.18 349.781 1193.18 349.939 1193.71 350.677C1194.5 351.784 1195.23 352.891 1195.92 354.05C1196.34 354.788 1196.13 355.737 1195.39 356.211C1195.13 356.369 1194.87 356.422 1194.6 356.422Z" fill="#212121"/>
<path d="M1153.76 428.411C1140.64 428.411 1128.3 423.299 1119.03 414.024C1109.75 404.748 1104.64 392.416 1104.64 379.294C1104.64 366.171 1109.75 353.839 1119.03 344.564C1136.05 327.541 1162.67 325.328 1182.22 339.241C1182.9 339.768 1183.11 340.717 1182.59 341.455C1182.06 342.14 1181.11 342.35 1180.37 341.823C1162.03 328.701 1137.16 330.809 1121.24 346.725C1112.55 355.42 1107.75 366.962 1107.75 379.241C1107.75 391.52 1112.55 403.062 1121.24 411.758C1129.94 420.453 1141.48 425.249 1153.76 425.249C1166.04 425.249 1177.58 420.453 1186.28 411.758C1190.23 407.805 1193.39 403.22 1195.66 398.161C1196.02 397.37 1196.92 397.001 1197.71 397.37C1198.5 397.739 1198.87 398.635 1198.5 399.426C1196.08 404.801 1192.7 409.702 1188.44 413.918C1179.21 423.299 1166.88 428.411 1153.76 428.411Z" fill="#212121"/>
<path d="M1153.76 418.292C1143.75 418.292 1133.73 414.498 1126.14 406.856C1118.77 399.478 1114.71 389.676 1114.71 379.241C1114.71 368.806 1118.77 359.004 1126.14 351.626C1140.16 337.555 1162.51 336.29 1178 348.675C1178.69 349.202 1178.79 350.203 1178.26 350.888C1177.74 351.573 1176.74 351.679 1176.05 351.152C1161.77 339.821 1141.27 340.98 1128.36 353.892C1121.56 360.69 1117.82 369.702 1117.82 379.294C1117.82 388.885 1121.56 397.897 1128.36 404.696C1142.38 418.714 1165.14 418.714 1179.16 404.696C1192.07 391.784 1193.23 371.283 1181.9 357.001C1181.37 356.316 1181.48 355.315 1182.16 354.788C1182.85 354.261 1183.85 354.366 1184.38 355.051C1196.71 370.598 1195.45 392.891 1181.43 406.909C1173.73 414.498 1163.77 418.292 1153.76 418.292Z" fill="#212121"/>
<path d="M1153.76 396.896C1149.23 396.896 1144.69 395.157 1141.27 391.731C1134.36 384.827 1134.36 373.655 1141.27 366.751C1146.85 361.165 1155.55 360.005 1162.45 363.905C1163.19 364.327 1163.46 365.275 1163.03 366.066C1162.61 366.804 1161.66 367.067 1160.87 366.646C1155.23 363.431 1148.07 364.379 1143.48 369.017C1137.84 374.656 1137.84 383.879 1143.48 389.571C1149.12 395.21 1158.34 395.21 1164.04 389.571C1168.62 384.986 1169.62 377.818 1166.41 372.179C1165.99 371.441 1166.25 370.44 1166.99 370.018C1167.72 369.597 1168.73 369.86 1169.15 370.598C1173.05 377.502 1171.89 386.198 1166.3 391.784C1162.77 395.21 1158.29 396.896 1153.76 396.896Z" fill="#212121"/>
<path d="M1153.76 389.412C1151.18 389.412 1148.59 388.411 1146.59 386.461C1142.64 382.509 1142.64 376.079 1146.59 372.127C1149.12 369.597 1152.86 368.596 1156.34 369.491C1157.18 369.702 1157.66 370.598 1157.45 371.389C1157.24 372.232 1156.39 372.706 1155.55 372.495C1153.13 371.863 1150.54 372.548 1148.8 374.287C1146.06 377.028 1146.06 381.455 1148.8 384.195C1151.55 386.935 1155.97 386.935 1158.71 384.195C1160.45 382.456 1161.14 379.874 1160.5 377.449C1160.29 376.606 1160.77 375.763 1161.61 375.552C1162.45 375.341 1163.3 375.816 1163.51 376.659C1164.46 380.137 1163.4 383.879 1160.87 386.408C1158.92 388.411 1156.34 389.412 1153.76 389.412Z" fill="#212121"/>
</g>
<g opacity="0.7">
<path d="M842 413C877.346 413 906 384.346 906 349C906 313.654 877.346 285 842 285C806.654 285 778 313.654 778 349C778 384.346 806.654 413 842 413Z" fill="url(#paint25_linear_2064_2)"/>
<path d="M842 375C856.359 375 868 363.359 868 349C868 334.641 856.359 323 842 323C827.641 323 816 334.641 816 349C816 363.359 827.641 375 842 375Z" fill="url(#paint26_linear_2064_2)"/>
<mask id="mask7_2064_2" style="mask-type:luminance" maskUnits="userSpaceOnUse" x="828" y="337" width="28" height="28">
<path d="M856 337H828V365H856V337Z" fill="white"/>
</mask>
<g mask="url(#mask7_2064_2)">
<path d="M828.953 346.625C829.23 345.05 829.861 343.559 830.797 342.263C831.734 340.967 832.951 339.9 834.359 339.143C835.767 338.385 837.328 337.956 838.926 337.888C840.523 337.82 842.115 338.115 843.582 338.75" stroke="black" stroke-width="1.5" stroke-linecap="round" stroke-linejoin="round"/>
<path d="M847.813 354.813C846.878 356.053 845.681 357.072 844.307 357.798C842.933 358.523 841.416 358.936 839.865 359.009C838.313 359.082 836.764 358.812 835.329 358.218C833.893 357.624 832.606 356.721 831.559 355.573" stroke="black" stroke-width="1.5" stroke-linecap="round" stroke-linejoin="round"/>
<path d="M846.846 355.923L855.047 364.125" stroke="black" stroke-width="1.5" stroke-linecap="round" stroke-linejoin="round"/>
<path d="M834.047 343.125V350.125C834.047 350.589 833.863 351.034 833.534 351.362C833.206 351.691 832.761 351.875 832.297 351.875H830.547" stroke="black" stroke-width="1.5" stroke-linecap="round" stroke-linejoin="round"/>
<path d="M839.297 343.125C838.833 343.125 838.388 343.309 838.059 343.638C837.731 343.966 837.547 344.411 837.547 344.875V350.125C837.547 350.589 837.731 351.034 838.059 351.362C838.388 351.691 838.833 351.875 839.297 351.875C839.761 351.875 840.206 351.691 840.534 351.362C840.863 351.034 841.047 350.589 841.047 350.125V344.875C841.047 344.411 840.863 343.966 840.534 343.638C840.206 343.309 839.761 343.125 839.297 343.125Z" stroke="black" stroke-width="1.5" stroke-linecap="round" stroke-linejoin="round"/>
<path d="M844.547 351.875V343.125" stroke="black" stroke-width="1.5" stroke-linecap="round" stroke-linejoin="round"/>
<path d="M844.547 343.125H846.297C846.761 343.125 847.206 343.309 847.534 343.638C847.863 343.966 848.047 344.411 848.047 344.875V345.75C848.047 346.214 847.863 346.659 847.534 346.987C847.206 347.316 846.761 347.5 846.297 347.5H844.547" stroke="black" stroke-width="1.5" stroke-linecap="round" stroke-linejoin="round"/>
<path d="M844.547 347.5H846.297C846.761 347.5 847.206 347.684 847.534 348.013C847.863 348.341 848.047 348.786 848.047 349.25V350.125C848.047 350.589 847.863 351.034 847.534 351.362C847.206 351.691 846.761 351.875 846.297 351.875H844.547" stroke="black" stroke-width="1.5" stroke-linecap="round" stroke-linejoin="round"/>
<path d="M855.047 343.125H853.297C852.833 343.125 852.388 343.309 852.059 343.638C851.731 343.966 851.547 344.411 851.547 344.875C851.547 347.5 855.047 347.5 855.047 350.125C855.047 350.589 854.862 351.034 854.534 351.362C854.206 351.691 853.761 351.875 853.297 351.875H851.547" stroke="black" stroke-width="1.5" stroke-linecap="round" stroke-linejoin="round"/>
</g>
</g>
</g>
<defs>
<linearGradient id="paint0_linear_2064_2" x1="44.3077" y1="-156.538" x2="246.873" y2="839.273" gradientUnits="userSpaceOnUse">
<stop offset="0.122897" stop-color="#CBF0AA" stop-opacity="0.6"/>
<stop offset="1" stop-color="white" stop-opacity="0"/>
</linearGradient>
<linearGradient id="paint1_linear_2064_2" x1="1624" y1="369.32" x2="691" y2="369.32" gradientUnits="userSpaceOnUse">
<stop stop-color="#D9EDF7"/>
<stop offset="0.5" stop-color="#95DBFF"/>
<stop offset="1" stop-color="#64CBFF"/>
</linearGradient>
<linearGradient id="paint2_linear_2064_2" x1="1624" y1="369.32" x2="691" y2="369.32" gradientUnits="userSpaceOnUse">
<stop stop-color="#CFEFAB"/>
<stop offset="0.369792" stop-color="#9FF89E"/>
<stop offset="1" stop-color="#8AE0DF"/>
</linearGradient>
<linearGradient id="paint3_linear_2064_2" x1="1386" y1="551.387" x2="1294" y2="551.387" gradientUnits="userSpaceOnUse">
<stop stop-color="#52C5FF" stop-opacity="0.1"/>
<stop offset="0.369792" stop-color="#7BD3FF" stop-opacity="0.2"/>
<stop offset="1" stop-color="#BCE9FF" stop-opacity="0.2"/>
</linearGradient>
<linearGradient id="paint4_linear_2064_2" x1="1358" y1="551.76" x2="1322" y2="551.76" gradientUnits="userSpaceOnUse">
<stop stop-color="#BCE9FF"/>
<stop offset="0.5" stop-color="#98DCFF"/>
<stop offset="1" stop-color="#52C5FF"/>
</linearGradient>
<linearGradient id="paint5_linear_2064_2" x1="1029" y1="189.387" x2="937" y2="189.387" gradientUnits="userSpaceOnUse">
<stop stop-color="#52C5FF" stop-opacity="0.1"/>
<stop offset="0.369792" stop-color="#7BD3FF" stop-opacity="0.2"/>
<stop offset="1" stop-color="#BCE9FF" stop-opacity="0.2"/>
</linearGradient>
<linearGradient id="paint6_linear_2064_2" x1="1000" y1="189.267" x2="965" y2="189.267" gradientUnits="userSpaceOnUse">
<stop stop-color="#BCE9FF"/>
<stop offset="0.5" stop-color="#98DCFF"/>
<stop offset="1" stop-color="#52C5FF"/>
</linearGradient>
<linearGradient id="paint7_linear_2064_2" x1="1286" y1="133.147" x2="1158" y2="133.147" gradientUnits="userSpaceOnUse">
<stop stop-color="#52C5FF" stop-opacity="0.4"/>
<stop offset="0.369792" stop-color="#7BD3FF" stop-opacity="0.4"/>
<stop offset="1" stop-color="#BCE9FF" stop-opacity="0.4"/>
</linearGradient>
<linearGradient id="paint8_linear_2064_2" x1="1248" y1="131.653" x2="1196" y2="131.653" gradientUnits="userSpaceOnUse">
<stop stop-color="#BCE9FF"/>
<stop offset="0.385" stop-color="#82D5FF"/>
<stop offset="1" stop-color="#52C5FF"/>
</linearGradient>
<linearGradient id="paint9_linear_2064_2" x1="1405" y1="214.453" x2="1323" y2="214.453" gradientUnits="userSpaceOnUse">
<stop stop-color="#52C5FF" stop-opacity="0.4"/>
<stop offset="0.369792" stop-color="#7BD3FF" stop-opacity="0.4"/>
<stop offset="1" stop-color="#BCE9FF" stop-opacity="0.4"/>
</linearGradient>
<linearGradient id="paint10_linear_2064_2" x1="1382.58" y1="213.471" x2="1345.42" y2="213.471" gradientUnits="userSpaceOnUse">
<stop stop-color="#CFEFAB"/>
<stop offset="0.369792" stop-color="#9FF89E"/>
<stop offset="1" stop-color="#8AE0DF"/>
</linearGradient>
<linearGradient id="paint11_linear_2064_2" x1="1382.58" y1="213.471" x2="1345.42" y2="213.471" gradientUnits="userSpaceOnUse">
<stop stop-color="#CFEFAB"/>
<stop offset="0.369792" stop-color="#9FF89E"/>
<stop offset="1" stop-color="#8AE0DF"/>
</linearGradient>
<linearGradient id="paint12_linear_2064_2" x1="1387.5" y1="213.687" x2="1340.5" y2="213.687" gradientUnits="userSpaceOnUse">
<stop stop-color="#BCE9FF"/>
<stop offset="0.385" stop-color="#82D5FF"/>
<stop offset="1" stop-color="#52C5FF"/>
</linearGradient>
<linearGradient id="paint13_linear_2064_2" x1="1142" y1="64.4533" x2="1060" y2="64.4533" gradientUnits="userSpaceOnUse">
<stop stop-color="#52C5FF" stop-opacity="0.1"/>
<stop offset="0.369792" stop-color="#7BD3FF" stop-opacity="0.2"/>
<stop offset="1" stop-color="#BCE9FF" stop-opacity="0.2"/>
</linearGradient>
<linearGradient id="paint14_linear_2064_2" x1="1119.58" y1="63.4709" x2="1082.42" y2="63.4709" gradientUnits="userSpaceOnUse">
<stop stop-color="#CFEFAB"/>
<stop offset="0.369792" stop-color="#9FF89E"/>
<stop offset="1" stop-color="#8AE0DF"/>
</linearGradient>
<linearGradient id="paint15_linear_2064_2" x1="1119.58" y1="63.4709" x2="1082.42" y2="63.4709" gradientUnits="userSpaceOnUse">
<stop stop-color="#CFEFAB"/>
<stop offset="0.369792" stop-color="#9FF89E"/>
<stop offset="1" stop-color="#8AE0DF"/>
</linearGradient>
<linearGradient id="paint16_linear_2064_2" x1="1125.5" y1="64.6867" x2="1078.5" y2="64.6867" gradientUnits="userSpaceOnUse">
<stop stop-color="#BCE9FF"/>
<stop offset="0.5" stop-color="#98DCFF"/>
<stop offset="1" stop-color="#52C5FF"/>
</linearGradient>
<linearGradient id="paint17_linear_2064_2" x1="1208" y1="688.453" x2="1126" y2="688.453" gradientUnits="userSpaceOnUse">
<stop stop-color="#52C5FF" stop-opacity="0.1"/>
<stop offset="0.369792" stop-color="#7BD3FF" stop-opacity="0.2"/>
<stop offset="1" stop-color="#BCE9FF" stop-opacity="0.2"/>
</linearGradient>
<linearGradient id="paint18_linear_2064_2" x1="1185.58" y1="687.471" x2="1148.42" y2="687.471" gradientUnits="userSpaceOnUse">
<stop stop-color="#CFEFAB"/>
<stop offset="0.369792" stop-color="#9FF89E"/>
<stop offset="1" stop-color="#8AE0DF"/>
</linearGradient>
<linearGradient id="paint19_linear_2064_2" x1="1185.58" y1="687.471" x2="1148.42" y2="687.471" gradientUnits="userSpaceOnUse">
<stop stop-color="#CFEFAB"/>
<stop offset="0.369792" stop-color="#9FF89E"/>
<stop offset="1" stop-color="#8AE0DF"/>
</linearGradient>
<linearGradient id="paint20_linear_2064_2" x1="1191.5" y1="688.687" x2="1144.5" y2="688.687" gradientUnits="userSpaceOnUse">
<stop stop-color="#BCE9FF"/>
<stop offset="0.5" stop-color="#98DCFF"/>
<stop offset="1" stop-color="#52C5FF"/>
</linearGradient>
<linearGradient id="paint21_linear_2064_2" x1="1034" y1="548.147" x2="906" y2="548.147" gradientUnits="userSpaceOnUse">
<stop stop-color="#52C5FF" stop-opacity="0.1"/>
<stop offset="0.369792" stop-color="#7BD3FF" stop-opacity="0.2"/>
<stop offset="1" stop-color="#BCE9FF" stop-opacity="0.2"/>
</linearGradient>
<linearGradient id="paint22_linear_2064_2" x1="996" y1="548.653" x2="944" y2="548.653" gradientUnits="userSpaceOnUse">
<stop stop-color="#BCE9FF"/>
<stop offset="0.5" stop-color="#98DCFF"/>
<stop offset="1" stop-color="#52C5FF"/>
</linearGradient>
<linearGradient id="paint23_linear_2064_2" x1="1325" y1="373.84" x2="989" y2="373.84" gradientUnits="userSpaceOnUse">
<stop stop-color="#52C5FF" stop-opacity="0.1"/>
<stop offset="0.369792" stop-color="#7BD3FF" stop-opacity="0.2"/>
<stop offset="1" stop-color="#BCE9FF" stop-opacity="0.2"/>
</linearGradient>
<linearGradient id="paint24_linear_2064_2" x1="1281" y1="374.4" x2="1033" y2="374.4" gradientUnits="userSpaceOnUse">
<stop stop-color="#52C5FF"/>
<stop offset="0.369792" stop-color="#7BD3FF"/>
<stop offset="1" stop-color="#BCE9FF"/>
</linearGradient>
<linearGradient id="paint25_linear_2064_2" x1="906" y1="348.147" x2="778" y2="348.147" gradientUnits="userSpaceOnUse">
<stop stop-color="#52C5FF" stop-opacity="0.1"/>
<stop offset="0.369792" stop-color="#7BD3FF" stop-opacity="0.2"/>
<stop offset="1" stop-color="#BCE9FF" stop-opacity="0.2"/>
</linearGradient>
<linearGradient id="paint26_linear_2064_2" x1="868" y1="348.653" x2="816" y2="348.653" gradientUnits="userSpaceOnUse">
<stop stop-color="#BCE9FF"/>
<stop offset="0.5" stop-color="#98DCFF"/>
<stop offset="1" stop-color="#52C5FF"/>
</linearGradient>
<clipPath id="clip0_2064_2">
<rect width="1440" height="740" fill="white"/>
</clipPath>
</defs>
</svg>
