<svg width="32" height="32" viewBox="0 0 32 32" fill="none" xmlns="http://www.w3.org/2000/svg">
<path d="M31.8805 12.557C31.6035 11.758 30.8925 11.173 30.0365 11.046L21.7105 9.808L18.0915 2.294C17.7105 1.505 16.8955 1 15.9995 1C15.1035 1 14.2885 1.505 13.9075 2.294L10.2885 9.808L1.96152 11.046C1.10652 11.173 0.395519 11.758 0.119519 12.557C-0.155481 13.358 0.0525187 14.24 0.656519 14.842L6.75852 20.934L5.34352 29.385C5.19952 30.236 5.56852 31.09 6.29152 31.588C6.68852 31.861 7.15552 32 7.62252 32C8.00652 32 8.39152 31.906 8.74052 31.719L15.9995 27.811L23.2595 31.719C23.6085 31.906 23.9935 32 24.3765 32C24.8435 32 25.3105 31.861 25.7085 31.588C26.4315 31.09 26.7985 30.236 26.6555 29.385L25.2395 20.934L31.3435 14.842C31.9465 14.239 32.1535 13.357 31.8805 12.557ZM23.5875 19.363C23.0755 19.873 22.8435 20.592 22.9605 21.297L24.3765 29.748L17.1165 25.842C16.7685 25.654 16.3845 25.561 15.9985 25.561C15.6145 25.561 15.2295 25.655 14.8815 25.842L7.62152 29.748L9.03752 21.297C9.15552 20.592 8.92352 19.873 8.41152 19.363L2.30952 13.271L10.6355 12.031C11.3965 11.918 12.0515 11.442 12.3785 10.763L15.9995 3.251L19.6195 10.764C19.9475 11.443 20.6015 11.918 21.3615 12.032L29.6895 13.272L23.5875 19.363Z" fill="white"/>
</svg>
